<svg xmlns="http://www.w3.org/2000/svg" viewBox="0 0 32 32" width="32" height="32">
  <defs>
    <linearGradient id="bg" x1="0%" y1="0%" x2="100%" y2="100%">
      <stop offset="0%" style="stop-color:#1a1a1a"/>
      <stop offset="100%" style="stop-color:#333333"/>
    </linearGradient>
  </defs>
  <!-- Background circle -->
  <circle cx="16" cy="16" r="15" fill="url(#bg)" stroke="#ffffff" stroke-width="1"/>
  <!-- R letter stylized -->
  <path d="M9 8 L9 24 L12 24 L12 18 L14 18 L18 24 L22 24 L17 17 C19.5 16 21 14 21 11.5 C21 8.5 18.5 8 16 8 Z M12 11 L15 11 C17 11 18 11.5 18 13 C18 14.5 17 15 15 15 L12 15 Z" fill="#ffffff"/>
  <!-- Gear accent -->
  <circle cx="23" cy="23" r="5" fill="none" stroke="#888888" stroke-width="1.5"/>
  <circle cx="23" cy="23" r="2" fill="#888888"/>
</svg>
